#extradata 0:      110, 0xb4031479
#tb 0: 1/25
#media_type 0: video
#codec_id 0: hevc
#dimensions 0: 128x128
#sar 0: 1/1
0,          0,          0,        1,     2108, 0x57c38f64
0,          2,          2,        1,       31, 0xabe10d25, F=0x0
0,          4,          4,        1,     1915, 0xd430347f, S=1,      109
0,          6,          6,        1,       35, 0xc4ad0d4c, F=0x0
0,          8,          8,        1,     2108, 0x57c38f64, S=1,      110
0,         10,         10,        1,       31, 0xabe10d25, F=0x0
0,         12,         12,        1,     1915, 0xd430347f, S=1,      109
0,         14,         14,        1,       35, 0xc4ad0d4c, F=0x0
0,         16,         16,        1,     2108, 0x57c38f64, S=1,      110
0,         18,         18,        1,       31, 0xabe10d25, F=0x0
0,         20,         20,        1,     1915, 0xd430347f, S=1,      109
0,         22,         22,        1,       35, 0xc4ad0d4c, F=0x0
